<?xml version="1.0" encoding="UTF-8" standalone="yes"?>
<!DOCTYPE svg PUBLIC "-//W3C//DTD SVG 1.0//EN" "http://www.w3.org/TR/2001/REC-SVG-20010904/DTD/svg10.dtd">
<svg height="100%" viewBox="0 0 10 8" width="100%" background-color="none" xmlns="http://www.w3.org/2000/svg" xmlns:svg="http://www.w3.org/2000/svg" xmlns:xlink="http://www.w3.org/1999/xlink">

<line opacity="0.75" stroke="darkRed" stroke-width="0.5" x1="2.25" x2="3.75" y1="2.5" y2="2.5"/>
<line opacity="0.75" stroke="darkRed" stroke-width="0.5" x1="2.25" x2="3.75" y1="3.5" y2="3.5"/>
<line opacity="0.75" stroke="darkRed" stroke-width="0.5" x1="8.25" x2="9.75" y1="2.5" y2="2.5"/>
<line opacity="0.75" stroke="darkRed" stroke-width="0.5" x1="8.25" x2="9.75" y1="3.5" y2="3.5"/>
<line opacity="0.75" stroke="darkRed" stroke-width="0.5" x1="5.25" x2="6.75" y1="4.5" y2="4.5"/>
<line opacity="0.75" stroke="darkRed" stroke-width="0.5" x1="2.25" x2="3.75" y1="5.5" y2="5.5"/>
<line opacity="0.75" stroke="darkRed" stroke-width="0.5" x1="2.25" x2="3.75" y1="6.5" y2="6.5"/>
<line opacity="0.75" stroke="darkRed" stroke-width="0.5" x1="8.25" x2="9.75" y1="5.5" y2="5.5"/>
<line opacity="0.75" stroke="darkRed" stroke-width="0.5" x1="8.25" x2="9.75" y1="6.5" y2="6.5"/>
<line opacity="0.75" stroke="darkRed" stroke-width="0.5" x1="2.25" x2="4.75" y1="4.5" y2="4.5"/>
<line opacity="0.75" stroke="darkRed" stroke-width="0.5" x1="4.25" x2="7.75" y1="3.5" y2="3.5"/>
<line opacity="0.75" stroke="darkRed" stroke-width="0.5" x1="7.25" x2="8.75" y1="4.5" y2="4.5"/>
<line opacity="0.75" stroke="darkBlue" stroke-width="0.5" x1="4.5" x2="4.5" y1="3.25" y2="4.75"/>
<line opacity="0.75" stroke="darkBlue" stroke-width="0.5" x1="7.5" x2="7.5" y1="3.25" y2="4.75"/>
<rect fill="green" height="0.5" opacity="1" stroke-width="0.5" width="0.5" x="2.25" y="2.25"/>
<rect fill="yellow" height="0.5" opacity="1" stroke-width="0.5" width="0.5" x="3.25" y="2.25"/>
<rect fill="green" height="0.5" opacity="1" stroke-width="0.5" width="0.5" x="2.25" y="3.25"/>
<rect fill="yellow" height="0.5" opacity="1" stroke-width="0.5" width="0.5" x="3.25" y="3.25"/>
<rect fill="green" height="0.5" opacity="1" stroke-width="0.5" width="0.5" x="8.25" y="2.25"/>
<rect fill="yellow" height="0.5" opacity="1" stroke-width="0.5" width="0.5" x="9.25" y="2.25"/>
<rect fill="green" height="0.5" opacity="1" stroke-width="0.5" width="0.5" x="8.25" y="3.25"/>
<rect fill="yellow" height="0.5" opacity="1" stroke-width="0.5" width="0.5" x="9.25" y="3.25"/>
<rect fill="green" height="0.5" opacity="1" stroke-width="0.5" width="0.5" x="5.25" y="4.25"/>
<rect fill="yellow" height="0.5" opacity="1" stroke-width="0.5" width="0.5" x="6.25" y="4.25"/>
<rect fill="green" height="0.5" opacity="1" stroke-width="0.5" width="0.5" x="2.25" y="5.25"/>
<rect fill="yellow" height="0.5" opacity="1" stroke-width="0.5" width="0.5" x="3.25" y="5.25"/>
<rect fill="green" height="0.5" opacity="1" stroke-width="0.5" width="0.5" x="2.25" y="6.25"/>
<rect fill="yellow" height="0.5" opacity="1" stroke-width="0.5" width="0.5" x="3.25" y="6.25"/>
<rect fill="green" height="0.5" opacity="1" stroke-width="0.5" width="0.5" x="8.25" y="5.25"/>
<rect fill="yellow" height="0.5" opacity="1" stroke-width="0.5" width="0.5" x="9.25" y="5.25"/>
<rect fill="green" height="0.5" opacity="1" stroke-width="0.5" width="0.5" x="8.25" y="6.25"/>
<rect fill="yellow" height="0.5" opacity="1" stroke-width="0.5" width="0.5" x="9.25" y="6.25"/>
<rect fill="green" height="0.5" opacity="1" stroke-width="0.5" width="0.5" x="2.25" y="4.25"/>
<rect fill="yellow" height="0.5" opacity="1" stroke-width="0.5" width="0.5" x="4.25" y="4.25"/>
<rect fill="green" height="0.5" opacity="1" stroke-width="0.5" width="0.5" x="4.25" y="4.25"/>
<rect fill="yellow" height="0.5" opacity="1" stroke-width="0.5" width="0.5" x="7.25" y="3.25"/>
<rect fill="green" height="0.5" opacity="1" stroke-width="0.5" width="0.5" x="7.25" y="3.25"/>
<rect fill="yellow" height="0.5" opacity="1" stroke-width="0.5" width="0.5" x="8.25" y="4.25"/>
<line dominant-baseline="hanging" font-size="0.25" opacity="0.2" stroke="black" stroke-width="0.015625" text-anchor="start" x1="0" x2="0" y1="0" y2="8"/>
<text dominant-baseline="hanging" fill="black" font-size="0.25" opacity="1" stroke="black" stroke-width="0.015625" text-anchor="start" x="0" y="0">0</text>
<line dominant-baseline="hanging" font-size="0.25" opacity="0.2" stroke="black" stroke-width="0.015625" text-anchor="start" x1="1" x2="1" y1="0" y2="8"/>
<text dominant-baseline="hanging" fill="black" font-size="0.25" opacity="1" stroke="black" stroke-width="0.015625" text-anchor="start" x="1" y="0">1</text>
<line dominant-baseline="hanging" font-size="0.25" opacity="0.2" stroke="black" stroke-width="0.015625" text-anchor="start" x1="2" x2="2" y1="0" y2="8"/>
<text dominant-baseline="hanging" fill="black" font-size="0.25" opacity="1" stroke="black" stroke-width="0.015625" text-anchor="start" x="2" y="0">2</text>
<line dominant-baseline="hanging" font-size="0.25" opacity="0.2" stroke="black" stroke-width="0.015625" text-anchor="start" x1="3" x2="3" y1="0" y2="8"/>
<text dominant-baseline="hanging" fill="black" font-size="0.25" opacity="1" stroke="black" stroke-width="0.015625" text-anchor="start" x="3" y="0">3</text>
<line dominant-baseline="hanging" font-size="0.25" opacity="0.2" stroke="black" stroke-width="0.015625" text-anchor="start" x1="4" x2="4" y1="0" y2="8"/>
<text dominant-baseline="hanging" fill="black" font-size="0.25" opacity="1" stroke="black" stroke-width="0.015625" text-anchor="start" x="4" y="0">4</text>
<line dominant-baseline="hanging" font-size="0.25" opacity="0.2" stroke="black" stroke-width="0.015625" text-anchor="start" x1="5" x2="5" y1="0" y2="8"/>
<text dominant-baseline="hanging" fill="black" font-size="0.25" opacity="1" stroke="black" stroke-width="0.015625" text-anchor="start" x="5" y="0">5</text>
<line dominant-baseline="hanging" font-size="0.25" opacity="0.2" stroke="black" stroke-width="0.015625" text-anchor="start" x1="6" x2="6" y1="0" y2="8"/>
<text dominant-baseline="hanging" fill="black" font-size="0.25" opacity="1" stroke="black" stroke-width="0.015625" text-anchor="start" x="6" y="0">6</text>
<line dominant-baseline="hanging" font-size="0.25" opacity="0.2" stroke="black" stroke-width="0.015625" text-anchor="start" x1="7" x2="7" y1="0" y2="8"/>
<text dominant-baseline="hanging" fill="black" font-size="0.25" opacity="1" stroke="black" stroke-width="0.015625" text-anchor="start" x="7" y="0">7</text>
<line dominant-baseline="hanging" font-size="0.25" opacity="0.2" stroke="black" stroke-width="0.015625" text-anchor="start" x1="8" x2="8" y1="0" y2="8"/>
<text dominant-baseline="hanging" fill="black" font-size="0.25" opacity="1" stroke="black" stroke-width="0.015625" text-anchor="start" x="8" y="0">8</text>
<line dominant-baseline="hanging" font-size="0.25" opacity="0.2" stroke="black" stroke-width="0.015625" text-anchor="start" x1="9" x2="9" y1="0" y2="8"/>
<text dominant-baseline="hanging" fill="black" font-size="0.25" opacity="1" stroke="black" stroke-width="0.015625" text-anchor="start" x="9" y="0">9</text>
<line dominant-baseline="hanging" font-size="0.25" opacity="0.2" stroke="black" stroke-width="0.015625" text-anchor="start" x1="10" x2="10" y1="0" y2="8"/>
<line dominant-baseline="hanging" font-size="0.25" opacity="0.2" stroke="black" stroke-width="0.015625" text-anchor="start" x1="0" x2="10" y1="0" y2="0"/>
<text dominant-baseline="hanging" fill="black" font-size="0.25" opacity="1" stroke="black" stroke-width="0.015625" text-anchor="start" x="0" y="0">0</text>
<line dominant-baseline="hanging" font-size="0.25" opacity="0.2" stroke="black" stroke-width="0.015625" text-anchor="start" x1="0" x2="10" y1="1" y2="1"/>
<text dominant-baseline="hanging" fill="black" font-size="0.25" opacity="1" stroke="black" stroke-width="0.015625" text-anchor="start" x="0" y="1">1</text>
<line dominant-baseline="hanging" font-size="0.25" opacity="0.2" stroke="black" stroke-width="0.015625" text-anchor="start" x1="0" x2="10" y1="2" y2="2"/>
<text dominant-baseline="hanging" fill="black" font-size="0.25" opacity="1" stroke="black" stroke-width="0.015625" text-anchor="start" x="0" y="2">2</text>
<line dominant-baseline="hanging" font-size="0.25" opacity="0.2" stroke="black" stroke-width="0.015625" text-anchor="start" x1="0" x2="10" y1="3" y2="3"/>
<text dominant-baseline="hanging" fill="black" font-size="0.25" opacity="1" stroke="black" stroke-width="0.015625" text-anchor="start" x="0" y="3">3</text>
<line dominant-baseline="hanging" font-size="0.25" opacity="0.2" stroke="black" stroke-width="0.015625" text-anchor="start" x1="0" x2="10" y1="4" y2="4"/>
<text dominant-baseline="hanging" fill="black" font-size="0.25" opacity="1" stroke="black" stroke-width="0.015625" text-anchor="start" x="0" y="4">4</text>
<line dominant-baseline="hanging" font-size="0.25" opacity="0.2" stroke="black" stroke-width="0.015625" text-anchor="start" x1="0" x2="10" y1="5" y2="5"/>
<text dominant-baseline="hanging" fill="black" font-size="0.25" opacity="1" stroke="black" stroke-width="0.015625" text-anchor="start" x="0" y="5">5</text>
<line dominant-baseline="hanging" font-size="0.25" opacity="0.2" stroke="black" stroke-width="0.015625" text-anchor="start" x1="0" x2="10" y1="6" y2="6"/>
<text dominant-baseline="hanging" fill="black" font-size="0.25" opacity="1" stroke="black" stroke-width="0.015625" text-anchor="start" x="0" y="6">6</text>
<line dominant-baseline="hanging" font-size="0.25" opacity="0.2" stroke="black" stroke-width="0.015625" text-anchor="start" x1="0" x2="10" y1="7" y2="7"/>
<text dominant-baseline="hanging" fill="black" font-size="0.25" opacity="1" stroke="black" stroke-width="0.015625" text-anchor="start" x="0" y="7">7</text>
<line dominant-baseline="hanging" font-size="0.25" opacity="0.2" stroke="black" stroke-width="0.015625" text-anchor="start" x1="0" x2="10" y1="8" y2="8"/>
</svg>
